<svg
   xmlns="http://www.w3.org/2000/svg"
   viewBox="0 0 39.934929 16.189163"
   width="100%"
   height="100%"
>
  <path
     d="m 36.016743,8.19 a 4,4 0 0 0 -3,1.33 l -0.23,-0.09 a 29.62,29.62 0 0 0 -4.77,-1.43 v 0 a 8,8 0 0 0 -16,0 h -0.22 A 29.53,29.53 0 0 0 7.1967435,9.39 l -0.23,0.09 a 4,4 0 1 0 0.93,1.78 v 0 a 27.62,27.62 0 0 1 4.2899995,-1.29 8,8 0 0 0 15.57,0 27.55,27.55 0 0 1 4.29,1.28 v 0 a 4,4 0 1 0 3.97,-3.06 z m -31.9999995,6 a 2,2 0 1 1 2,-2 2,2 0 0 1 -2,2 z m 15.9999995,0 a 6,6 0 1 1 6,-6 6,6 0 0 1 -6,6 z m 16,0 a 2,2 0 1 1 2,-2 2,2 0 0 1 -2,2 z m -13,-6 a 3,3 0 1 1 -3,-3 3,3 0 0 1 3,3 z"
     id="path2" />
</svg>
