<svg
   xmlns="http://www.w3.org/2000/svg"
   viewBox="19 900 3951 2170"
   width="100%"
   height="100%"
>
  <path d="M 1491 1100 L 2506 1100 L 2543 1038 L 2579 975 L 2003 972 C 1686 971 1425 972 1422 974 C 1420 977 1434 1006 1455 1039 Z M 1418 2990 L 2578 2990 L 2542 2925 L 2505 2860 L 1997 2863 L 1488 2865 L 1453 2928 Z M 1575 2720 L 2000 2717 L 2424 2715 L 2508 2570 C 2555 2490 2644 2335 2708 2225 C 2771 2115 2829 2016 2836 2005 C 2848 1987 2839 1968 2752 1815 C 2620 1586 2500 1377 2459 1308 L 2425 1250 L 1573 1250 L 1478 1413 C 1425 1502 1330 1666 1265 1777 L 1148 1979 L 1212 2092 C 1282 2214 1487 2569 1541 2662 Z M 2625 3070 L 1372 3070 L 1312 2968 C 1279 2911 1216 2802 1172 2725 C 1128 2648 1062 2533 1025 2470 C 869 2203 750 1991 750 1980 C 750 1970 1024 1492 1285 1045 L 1366 905 L 1997 902 L 2628 900 L 2797 1192 C 3256 1986 3254 1981 3243 1999 C 3233 2016 3066 2305 2890 2610 C 2832 2712 2748 2857 2704 2932 Z M 585 2950 C 578 2950 555 2913 462 2750 C 407 2654 323 2508 275 2425 C 227 2343 150 2209 104 2128 L 19 1981 L 96 1848 C 139 1775 196 1677 223 1630 C 250 1583 325 1453 390 1340 C 543 1074 576 1019 585 1019 C 593 1019 783 1341 783 1355 C 783 1361 747 1426 703 1500 C 659 1574 608 1662 590 1695 C 572 1728 528 1804 492 1863 C 453 1930 430 1978 433 1990 C 436 2000 478 2078 528 2162 C 677 2416 780 2599 780 2609 C 780 2619 721 2725 628 2883 C 606 2920 587 2950 585 2950 Z M 3411 2950 C 3407 2950 3394 2931 3382 2908 C 3371 2884 3327 2807 3286 2736 L 3210 2608 L 3286 2476 C 3328 2404 3409 2263 3467 2162 L 3571 1980 L 3449 1767 C 3382 1651 3300 1511 3268 1456 L 3209 1357 L 3256 1276 C 3282 1232 3326 1156 3353 1108 C 3380 1060 3405 1018 3409 1015 C 3413 1013 3442 1054 3472 1108 C 3520 1191 3683 1472 3911 1867 C 3943 1923 3970 1974 3970 1981 C 3970 1992 3915 2088 3622 2595 C 3565 2694 3496 2814 3468 2863 C 3440 2911 3415 2950 3411 2950 Z" />
</svg>
